<svg xmlns="http://www.w3.org/2000/svg" xmlns:xlink="http://www.w3.org/1999/xlink" width="840" height="581.04"><rect width="840" height="581.04" rx="5" ry="5" class="a"/><svg y="0%" x="0%"><circle cx="20" cy="20" r="6" fill="#ff5f58"/><circle cx="40" cy="20" r="6" fill="#ffbd2e"/><circle cx="60" cy="20" r="6" fill="#18c132"/></svg><svg height="521.04" viewBox="0 0 80 52.104" width="800" x="15" xmlns="http://www.w3.org/2000/svg" xmlns:xlink="http://www.w3.org/1999/xlink" y="50"><style>@keyframes n{0%{transform:translateX(0)}28.42%{transform:translateX(-80px)}32.51%{transform:translateX(-160px)}32.56%{transform:translateX(-240px)}36.66%{transform:translateX(-320px)}36.71%{transform:translateX(-400px)}39.34%{transform:translateX(-480px)}92.76%{transform:translateX(-560px)}99.93%{transform:translateX(-720px)}}.a{fill:#282d35}.f,.g{fill:#b9c0cb;font-weight:700;white-space:pre}.g{fill:#66c2cd}.h{fill:#6f7783}.h,.i,.j,.k{white-space:pre}.i{fill:#6f7783;font-weight:700}.j,.k{fill:#b9c0cb}.k{fill:#a8cc8c}.p{fill:#b9c0cb}.q,.r,.s{fill:#282d35;white-space:pre}.r,.s{fill:#585858}.s{fill:#dbab79}</style><g font-family="Monaco,Consolas,Menlo,'Bitstream Vera Sans Mono','Powerline Symbols',monospace" font-size="1.67"><defs><symbol id="1"><text y="1.67" class="f">mcp-wire</text><text x="9.018" y="1.67" class="f">v0.2.2</text><text x="17.034" y="1.67" class="g">Service</text></symbol><symbol id="2"><text x="6.012" y="1.67" class="h">curated</text><text x="14.028" y="1.67" class="h">·</text><text x="16.032" y="1.67" class="h">http</text><text x="21.042" y="1.67" class="h">·</text><text x="23.046" y="1.67" class="h">remote</text><text x="30.06" y="1.67" class="h">·</text><text x="32.064" y="1.67" class="h">OAuth</text></symbol><symbol id="3"><text y="1.67" class="i">↑↓</text><text x="3.006" y="1.67" class="j">move</text><text x="9.018" y="1.67" class="i">Enter</text><text x="15.03" y="1.67" class="j">select</text><text x="23.046" y="1.67" class="i">type</text><text x="28.056" y="1.67" class="j">to</text><text x="31.062" y="1.67" class="j">filter</text><text x="39.078" y="1.67" class="i">Esc</text><text x="43.086" y="1.67" class="j">back</text></symbol><symbol id="4"><text y="1.67" class="f">mcp-wire</text><text x="9.018" y="1.67" class="f">v0.2.2</text><text x="17.034" y="1.67" class="k">playwright</text><text x="28.056" y="1.67" class="k">✓</text><text x="30.06" y="1.67" class="h">›</text><text x="32.064" y="1.67" class="g">Targets</text></symbol><symbol id="5"><text x="2.004" y="1.67" class="j">Select</text><text x="9.018" y="1.67" class="j">targets:</text></symbol><symbol id="6"><text x="4.008" y="1.67" class="j">[</text><text x="6.012" y="1.67" class="j">]</text><text x="8.016" y="1.67" class="j">Codex</text><text x="14.028" y="1.67" class="j">CLI</text><text x="18.036" y="1.67" class="j">(codex)</text></symbol><symbol id="7"><text x="4.008" y="1.67" class="j">[</text><text x="6.012" y="1.67" class="j">]</text><text x="8.016" y="1.67" class="j">OpenCode</text><text x="17.034" y="1.67" class="j">(opencode)</text></symbol><symbol id="8"><text y="1.67" class="i">↑↓</text><text x="3.006" y="1.67" class="j">move</text><text x="9.018" y="1.67" class="i">Space</text><text x="15.03" y="1.67" class="j">toggle</text><text x="23.046" y="1.67" class="i">a</text><text x="25.05" y="1.67" class="j">all</text><text x="30.06" y="1.67" class="i">n</text><text x="32.064" y="1.67" class="j">none</text><text x="38.076" y="1.67" class="i">Enter</text><text x="44.088" y="1.67" class="j">confirm</text><text x="53.106" y="1.67" class="i">Esc</text><text x="57.114" y="1.67" class="j">back</text></symbol><symbol id="9"><text y="1.67" class="f">mcp-wire</text><text x="9.018" y="1.67" class="f">v0.2.2</text><text x="17.034" y="1.67" class="k">playwright</text><text x="28.056" y="1.67" class="k">✓</text><text x="30.06" y="1.67" class="h">›</text><text x="32.064" y="1.67" class="k">Claude</text><text x="39.078" y="1.67" class="k">Code</text><text x="44.088" y="1.67" class="k">✓</text><text x="46.092" y="1.67" class="h">›</text><text x="48.096" y="1.67" class="g">Apply</text></symbol><symbol id="10"><text x="2.004" y="1.67" class="k">✓</text><text x="4.008" y="1.67" class="k">playwright</text><text x="15.03" y="1.67" class="k">installed</text><text x="25.05" y="1.67" class="k">successfully</text></symbol><symbol id="11"><text x="2.004" y="1.67" class="k">✓</text><text x="4.008" y="1.67" class="j">Claude</text><text x="11.022" y="1.67" class="j">Code</text><text x="21.042" y="1.67" class="j">configured</text></symbol><symbol id="12"><text x="2.004" y="1.67" class="h">Equivalent</text><text x="13.026" y="1.67" class="h">command:</text></symbol><symbol id="13"><text x="4.008" y="1.67" class="j">mcp-wire</text><text x="13.026" y="1.67" class="j">install</text><text x="21.042" y="1.67" class="j">playwright</text><text x="32.064" y="1.67" class="j">--target</text><text x="41.082" y="1.67" class="j">claude</text></symbol><symbol id="14"><text y="1.67" class="i">←→</text><text x="3.006" y="1.67" class="j">choose</text><text x="11.022" y="1.67" class="i">Enter</text><text x="17.034" y="1.67" class="j">confirm</text></symbol><symbol id="15"><text x="3.006" y="1.67" class="h">Install</text><text x="11.022" y="1.67" class="h">another</text><text x="22.044" y="1.67" class="h">Back</text><text x="27.054" y="1.67" class="h">to</text><text x="30.06" y="1.67" class="h">menu</text><text x="37.074" y="1.67" class="g">[Exit]</text></symbol><symbol id="a"><path fill="transparent" d="M0 0h80v25H0z"/></symbol><symbol id="b"><path fill="#6f7683" d="M0 0h1.102v2.171H0z"/></symbol></defs><path class="a" d="M0 0h80v52.104H0z"/><g style="animation-duration:19.686s;animation-iteration-count:infinite;animation-name:n;animation-timing-function:steps(1,end)"><svg width="800"><svg><use xlink:href="#a"/><use xlink:href="#b" x="-.004"/></svg><svg x="80"><use xlink:href="#a"/><use xlink:href="#b" x="-.004" y="49.908"/><use xlink:href="#1"/><text x="2.004" y="6.012" class="j">Search:</text><path class="p" d="M10.02 4.342h1v2.171h-1z"/><text x="10.02" y="6.012" class="q">t</text><text x="11.022" y="6.012" class="r">ype</text><text x="15.03" y="6.012" class="r">to</text><text x="18.036" y="6.012" class="r">filter...</text><text x="2.004" y="8.183" class="h">7</text><text x="4.008" y="8.183" class="h">services</text><text x="2.004" y="12.525" class="g">❯</text><text x="4.008" y="12.525" class="g">context7</text><text x="6.012" y="14.696" class="h">Context7</text><text x="15.03" y="14.696" class="h">documentation</text><text x="29.058" y="14.696" class="h">lookup</text><text x="36.072" y="14.696" class="h">MCP</text><text x="40.08" y="14.696" class="h">(OAuth)</text><use xlink:href="#2" y="15.197"/><text x="4.008" y="19.038" class="j">github</text><text x="6.012" y="21.209" class="h">GitHub</text><text x="13.026" y="21.209" class="h">MCP</text><text x="17.034" y="21.209" class="h">server</text><text x="24.048" y="21.209" class="h">(OAuth)</text><use xlink:href="#2" y="21.71"/><text x="4.008" y="25.551" class="j">jira</text><text x="6.012" y="27.722" class="h">Atlassian</text><text x="16.032" y="27.722" class="h">Rovo</text><text x="21.042" y="27.722" class="h">MCP</text><text x="25.05" y="27.722" class="h">server</text><text x="32.064" y="27.722" class="h">(OAuth)</text><use xlink:href="#2" y="28.223"/><text x="4.008" y="32.064" class="j">linear</text><text x="6.012" y="34.235" class="h">Linear</text><text x="13.026" y="34.235" class="h">MCP</text><text x="17.034" y="34.235" class="h">server</text><text x="24.048" y="34.235" class="h">(OAuth)</text><use xlink:href="#2" y="34.736"/><text x="4.008" y="38.577" class="j">notion</text><text x="6.012" y="40.748" class="h">Notion</text><text x="13.026" y="40.748" class="h">MCP</text><text x="17.034" y="40.748" class="h">server</text><text x="24.048" y="40.748" class="h">(OAuth)</text><use xlink:href="#2" y="41.249"/><text x="2.004" y="45.09" class="h">▼</text><text x="4.008" y="45.09" class="h">2</text><text x="6.012" y="45.09" class="h">more</text><use xlink:href="#3" y="49.933"/></svg><svg x="160"><use xlink:href="#a"/><use xlink:href="#b" x="-.004" y="49.908"/><use xlink:href="#1"/><text x="2.004" y="6.012" class="j">Search:</text><text x="10.02" y="6.012" class="j">playwright</text><path class="p" d="M20.04 4.342h1v2.171h-1z"/><text x="20.04" y="6.012" class="q"></text><text x="2.004" y="8.183" class="h">1</text><text x="4.008" y="8.183" class="h">matches</text><text x="2.004" y="12.525" class="g">❯</text><text x="4.008" y="12.525" class="g">playwright</text><text x="6.012" y="14.696" class="h">Playwright</text><text x="17.034" y="14.696" class="h">browser</text><text x="25.05" y="14.696" class="h">automation</text><text x="36.072" y="14.696" class="h">MCP</text><text x="40.08" y="14.696" class="h">server</text><text x="6.012" y="16.867" class="h">curated</text><text x="14.028" y="16.867" class="h">·</text><text x="16.032" y="16.867" class="h">stdio</text><text x="22.044" y="16.867" class="h">·</text><text x="24.048" y="16.867" class="h">local</text><text x="30.06" y="16.867" class="h">·</text><text x="32.064" y="16.867" class="h">none</text><text x="10.02" y="21.209" class="h">—</text><text x="12.024" y="21.209" class="h">end</text><text x="16.032" y="21.209" class="h">of</text><text x="19.038" y="21.209" class="h">results</text><text x="27.054" y="21.209" class="h">—</text><use xlink:href="#3" y="49.933"/></svg><svg x="240"><use xlink:href="#a"/><use xlink:href="#b" x="-.004" y="49.908"/><use xlink:href="#4"/><use xlink:href="#5" y="6.513"/><text x="2.004" y="12.525" class="g">❯</text><text x="4.008" y="12.525" class="g">[</text><text x="6.012" y="12.525" class="g">]</text><text x="8.016" y="12.525" class="g">Claude</text><text x="15.03" y="12.525" class="g">Code</text><text x="20.04" y="12.525" class="g">(claude)</text><use xlink:href="#6" y="13.026"/><use xlink:href="#7" y="15.197"/><text x="2.004" y="21.209" class="s">Select</text><text x="9.018" y="21.209" class="s">at</text><text x="12.024" y="21.209" class="s">least</text><text x="18.036" y="21.209" class="s">one</text><text x="22.044" y="21.209" class="s">target</text><use xlink:href="#8" y="49.933"/></svg><svg x="320"><use xlink:href="#a"/><use xlink:href="#b" x="-.004" y="49.908"/><use xlink:href="#4"/><use xlink:href="#5" y="6.513"/><text x="2.004" y="12.525" class="g">❯</text><text x="4.008" y="12.525" class="g">[x]</text><text x="8.016" y="12.525" class="g">Claude</text><text x="15.03" y="12.525" class="g">Code</text><text x="20.04" y="12.525" class="g">(claude)</text><use xlink:href="#6" y="13.026"/><use xlink:href="#7" y="15.197"/><text x="2.004" y="21.209" class="h">1</text><text x="4.008" y="21.209" class="h">target(s)</text><text x="14.028" y="21.209" class="h">selected</text><use xlink:href="#8" y="49.933"/></svg><svg x="400"><use xlink:href="#a"/><use xlink:href="#b" x="-.004" y="49.908"/><text y="1.67" class="f">mcp-wire</text><text x="9.018" y="1.67" class="f">v0.2.2</text><text x="17.034" y="1.67" class="k">playwright</text><text x="28.056" y="1.67" class="k">✓</text><text x="30.06" y="1.67" class="h">›</text><text x="32.064" y="1.67" class="k">Claude</text><text x="39.078" y="1.67" class="k">Code</text><text x="44.088" y="1.67" class="k">✓</text><text x="46.092" y="1.67" class="h">›</text><text x="48.096" y="1.67" class="g">Scope</text><text x="2.004" y="8.183" class="j">Install</text><text x="10.02" y="8.183" class="j">scope</text><text x="16.032" y="8.183" class="j">for</text><text x="20.04" y="8.183" class="j">targets</text><text x="28.056" y="8.183" class="j">that</text><text x="33.066" y="8.183" class="j">support</text><text x="41.082" y="8.183" class="j">it</text><text x="44.088" y="8.183" class="j">(Claude</text><text x="52.104" y="8.183" class="j">Code):</text><text x="2.004" y="12.525" class="g">❯</text><text x="4.008" y="12.525" class="g">User</text><text x="12.024" y="12.525" class="h">available</text><text x="22.044" y="12.525" class="h">across</text><text x="29.058" y="12.525" class="h">all</text><text x="33.066" y="12.525" class="h">projects</text><text x="42.084" y="12.525" class="h">(default)</text><text x="4.008" y="14.696" class="j">Project</text><text x="15.03" y="14.696" class="h">only</text><text x="20.04" y="14.696" class="h">for</text><text x="24.048" y="14.696" class="h">the</text><text x="28.056" y="14.696" class="h">current</text><text x="36.072" y="14.696" class="h">directory</text><text x="2.004" y="21.209" class="h">Targets</text><text x="10.02" y="21.209" class="h">without</text><text x="18.036" y="21.209" class="h">scope</text><text x="24.048" y="21.209" class="h">support</text><text x="32.064" y="21.209" class="h">will</text><text x="37.074" y="21.209" class="h">use</text><text x="41.082" y="21.209" class="h">their</text><text x="47.094" y="21.209" class="h">default</text><text x="55.11" y="21.209" class="h">behavior.</text><text y="51.603" class="i">↑↓</text><text x="3.006" y="51.603" class="j">move</text><text x="9.018" y="51.603" class="i">Enter</text><text x="15.03" y="51.603" class="j">select</text><text x="23.046" y="51.603" class="i">Esc</text><text x="27.054" y="51.603" class="j">back</text></svg><svg x="480"><use xlink:href="#a"/><use xlink:href="#b" x="-.004" y="49.908"/><text y="1.67" class="f">mcp-wire</text><text x="9.018" y="1.67" class="f">v0.2.2</text><text x="17.034" y="1.67" class="k">playwright</text><text x="28.056" y="1.67" class="k">✓</text><text x="30.06" y="1.67" class="h">›</text><text x="32.064" y="1.67" class="k">Claude</text><text x="39.078" y="1.67" class="k">Code</text><text x="44.088" y="1.67" class="k">✓</text><text x="2.004" y="8.183" class="h">Action:</text><text x="11.022" y="8.183" class="j">Install</text><text x="19.038" y="8.183" class="j">service</text><text x="2.004" y="10.354" class="h">Service:</text><text x="12.024" y="10.354" class="j">playwright</text><text x="23.046" y="10.354" class="j">—</text><text x="25.05" y="10.354" class="j">Playwright</text><text x="36.072" y="10.354" class="j">browser</text><text x="44.088" y="10.354" class="j">automation</text><text x="55.11" y="10.354" class="j">MCP</text><text x="59.118" y="10.354" class="j">server</text><text x="2.004" y="12.525" class="h">Targets:</text><text x="12.024" y="12.525" class="j">Claude</text><text x="19.038" y="12.525" class="j">Code</text><text x="2.004" y="14.696" class="h">Scope:</text><text x="10.02" y="14.696" class="j">User</text><text x="15.03" y="14.696" class="j">(for</text><text x="20.04" y="14.696" class="j">targets</text><text x="28.056" y="14.696" class="j">that</text><text x="33.066" y="14.696" class="j">support</text><text x="41.082" y="14.696" class="j">it)</text><text x="2.004" y="16.867" class="h">Credentials:</text><text x="16.032" y="16.867" class="j">prompt</text><text x="23.046" y="16.867" class="j">as</text><text x="26.052" y="16.867" class="j">needed</text><text x="2.004" y="21.209" class="h">Command:</text><text x="12.024" y="21.209" class="j">mcp-wire</text><text x="21.042" y="21.209" class="j">install</text><text x="29.058" y="21.209" class="j">playwright</text><text x="40.08" y="21.209" class="j">--target</text><text x="49.098" y="21.209" class="j">claude</text><text x="2.004" y="25.551" class="g">[Install]</text><text x="14.028" y="25.551" class="h">Cancel</text><text y="51.603" class="i">←→</text><text x="3.006" y="51.603" class="j">choose</text><text x="11.022" y="51.603" class="i">Enter</text><text x="17.034" y="51.603" class="j">confirm</text><text x="26.052" y="51.603" class="i">Esc</text><text x="30.06" y="51.603" class="j">back</text></svg><svg x="560"><use xlink:href="#a"/><use xlink:href="#b" x="-.004" y="49.908"/><use xlink:href="#9"/><use xlink:href="#10" y="6.513"/><use xlink:href="#11" y="10.855"/><use xlink:href="#12" y="15.197"/><use xlink:href="#13" y="17.368"/><text x="2.004" y="23.38" class="g">[Install</text><text x="11.022" y="23.38" class="g">another]</text><text x="22.044" y="23.38" class="h">Back</text><text x="27.054" y="23.38" class="h">to</text><text x="30.06" y="23.38" class="h">menu</text><text x="38.076" y="23.38" class="h">Exit</text><use xlink:href="#14" y="49.933"/></svg><svg x="640"><use xlink:href="#a"/><use xlink:href="#b" x="-.004" y="49.908"/><use xlink:href="#9"/><use xlink:href="#10" y="6.513"/><use xlink:href="#11" y="10.855"/><use xlink:href="#12" y="15.197"/><use xlink:href="#13" y="17.368"/><use xlink:href="#15" y="21.71"/><use xlink:href="#14" y="49.933"/></svg><svg x="720"><use xlink:href="#a"/><use xlink:href="#b" x="-.004"/><use xlink:href="#9"/><use xlink:href="#10" y="6.513"/><use xlink:href="#11" y="10.855"/><use xlink:href="#12" y="15.197"/><use xlink:href="#13" y="17.368"/><use xlink:href="#15" y="21.71"/></svg></svg></g></g></svg></svg>