<svg xmlns="http://www.w3.org/2000/svg" xmlns:xlink="http://www.w3.org/1999/xlink" width="840" height="581.04"><rect width="840" height="581.04" rx="5" ry="5" class="a"/><svg y="0%" x="0%"><circle cx="20" cy="20" r="6" fill="#ff5f58"/><circle cx="40" cy="20" r="6" fill="#ffbd2e"/><circle cx="60" cy="20" r="6" fill="#18c132"/></svg><svg height="521.04" viewBox="0 0 80 52.104" width="800" x="15" xmlns="http://www.w3.org/2000/svg" xmlns:xlink="http://www.w3.org/1999/xlink" y="50"><style>@keyframes n{0%{transform:translateX(0)}29.87%{transform:translateX(-80px)}29.9%{transform:translateX(-160px)}34.01%{transform:translateX(-240px)}34.05%{transform:translateX(-320px)}36.68%{transform:translateX(-400px)}39.3%{transform:translateX(-480px)}92.74%{transform:translateX(-560px)}99.92%{transform:translateX(-720px)}}.a{fill:#282d35}.f,.g{fill:#b9c0cb;font-weight:700;white-space:pre}.g{fill:#66c2cd}.h{fill:#b9c0cb}.h,.i,.j,.k{white-space:pre}.i{fill:#6f7783;font-weight:700}.j,.k{fill:#a8cc8c}.k{fill:#6f7783}.p{fill:#71bef2}.r,.u{fill:#dbab79;white-space:pre}.u{fill:#585858}</style><g font-family="Monaco,Consolas,Menlo,'Bitstream Vera Sans Mono','Powerline Symbols',monospace" font-size="1.67"><defs><symbol id="1"><text y="1.67" class="f">mcp-wire</text><text x="9.018" y="1.67" class="f">v0.2.2</text><text x="17.034" y="1.67" class="g">Targets</text></symbol><symbol id="2"><text x="2.004" y="1.67" class="h">Select</text><text x="9.018" y="1.67" class="h">targets:</text></symbol><symbol id="3"><text x="4.008" y="1.67" class="h">[</text><text x="6.012" y="1.67" class="h">]</text><text x="8.016" y="1.67" class="h">Codex</text><text x="14.028" y="1.67" class="h">CLI</text><text x="18.036" y="1.67" class="h">(codex)</text></symbol><symbol id="4"><text x="4.008" y="1.67" class="h">[</text><text x="6.012" y="1.67" class="h">]</text><text x="8.016" y="1.67" class="h">OpenCode</text><text x="17.034" y="1.67" class="h">(opencode)</text></symbol><symbol id="5"><text y="1.67" class="i">↑↓</text><text x="3.006" y="1.67" class="h">move</text><text x="9.018" y="1.67" class="i">Space</text><text x="15.03" y="1.67" class="h">toggle</text><text x="23.046" y="1.67" class="i">a</text><text x="25.05" y="1.67" class="h">all</text><text x="30.06" y="1.67" class="i">n</text><text x="32.064" y="1.67" class="h">none</text><text x="38.076" y="1.67" class="i">Enter</text><text x="44.088" y="1.67" class="h">confirm</text><text x="53.106" y="1.67" class="i">Esc</text><text x="57.114" y="1.67" class="h">back</text></symbol><symbol id="6"><text y="1.67" class="f">mcp-wire</text><text x="9.018" y="1.67" class="f">v0.2.2</text><text x="17.034" y="1.67" class="j">Claude</text><text x="24.048" y="1.67" class="j">Code</text><text x="29.058" y="1.67" class="j">✓</text><text x="31.062" y="1.67" class="k">›</text><text x="33.066" y="1.67" class="j">playwright</text><text x="44.088" y="1.67" class="j">✓</text><text x="46.092" y="1.67" class="k">›</text><text x="48.096" y="1.67" class="g">Apply</text></symbol><symbol id="7"><text x="2.004" y="1.67" class="j">✓</text><text x="4.008" y="1.67" class="j">playwright</text><text x="15.03" y="1.67" class="j">removed</text><text x="23.046" y="1.67" class="j">successfully</text></symbol><symbol id="8"><text x="2.004" y="1.67" class="j">✓</text><text x="4.008" y="1.67" class="h">Claude</text><text x="11.022" y="1.67" class="h">Code</text><text x="21.042" y="1.67" class="h">removed</text></symbol><symbol id="9"><text x="2.004" y="1.67" class="k">Equivalent</text><text x="13.026" y="1.67" class="k">command:</text></symbol><symbol id="10"><text x="4.008" y="1.67" class="h">mcp-wire</text><text x="13.026" y="1.67" class="h">uninstall</text><text x="23.046" y="1.67" class="h">playwright</text><text x="34.068" y="1.67" class="h">--target</text><text x="43.086" y="1.67" class="h">claude</text></symbol><symbol id="11"><text y="1.67" class="i">←→</text><text x="3.006" y="1.67" class="h">choose</text><text x="11.022" y="1.67" class="i">Enter</text><text x="17.034" y="1.67" class="h">confirm</text></symbol><symbol id="12"><text x="3.006" y="1.67" class="k">Uninstall</text><text x="13.026" y="1.67" class="k">another</text><text x="24.048" y="1.67" class="k">Back</text><text x="29.058" y="1.67" class="k">to</text><text x="32.064" y="1.67" class="k">menu</text><text x="39.078" y="1.67" class="g">[Exit]</text></symbol><symbol id="a"><path fill="transparent" d="M0 0h80v25H0z"/></symbol><symbol id="b"><path fill="#6f7683" d="M0 0h1.102v2.171H0z"/></symbol></defs><path class="a" d="M0 0h80v52.104H0z"/><g style="animation-duration:19.68s;animation-iteration-count:infinite;animation-name:n;animation-timing-function:steps(1,end)"><svg width="800"><svg><use xlink:href="#a"/><use xlink:href="#b" x="-.004"/></svg><svg x="80"><use xlink:href="#a"/><use xlink:href="#b" x="-.004" y="49.908"/><text x="4.008" y="8.183" class="h">Install</text><text x="12.024" y="8.183" class="h">service</text><path class="p" d="M0 8.684h21v2.171H0z"/><text y="10.354" style="white-space:pre" fill="#fff" font-weight="700">❯ Uninstall service</text><path class="p" d="M21.042 8.684h59v2.171h-59z"/><text x="21.042" y="10.354" class="h"></text></svg><svg x="160"><use xlink:href="#a"/><use xlink:href="#b" x="-.004" y="49.908"/><use xlink:href="#1"/><use xlink:href="#2" y="6.513"/><text x="2.004" y="12.525" class="g">❯</text><text x="4.008" y="12.525" class="g">[</text><text x="6.012" y="12.525" class="g">]</text><text x="8.016" y="12.525" class="g">Claude</text><text x="15.03" y="12.525" class="g">Code</text><text x="20.04" y="12.525" class="g">(claude)</text><use xlink:href="#3" y="13.026"/><use xlink:href="#4" y="15.197"/><text x="2.004" y="21.209" class="r">Select</text><text x="9.018" y="21.209" class="r">at</text><text x="12.024" y="21.209" class="r">least</text><text x="18.036" y="21.209" class="r">one</text><text x="22.044" y="21.209" class="r">target</text><use xlink:href="#5" y="49.933"/></svg><svg x="240"><use xlink:href="#a"/><use xlink:href="#b" x="-.004" y="49.908"/><use xlink:href="#1"/><use xlink:href="#2" y="6.513"/><text x="2.004" y="12.525" class="g">❯</text><text x="4.008" y="12.525" class="g">[x]</text><text x="8.016" y="12.525" class="g">Claude</text><text x="15.03" y="12.525" class="g">Code</text><text x="20.04" y="12.525" class="g">(claude)</text><use xlink:href="#3" y="13.026"/><use xlink:href="#4" y="15.197"/><text x="2.004" y="21.209" class="k">1</text><text x="4.008" y="21.209" class="k">target(s)</text><text x="14.028" y="21.209" class="k">selected</text><use xlink:href="#5" y="49.933"/></svg><svg x="320"><use xlink:href="#a"/><use xlink:href="#b" x="-.004" y="49.908"/><text y="1.67" class="f">mcp-wire</text><text x="9.018" y="1.67" class="f">v0.2.2</text><text x="17.034" y="1.67" class="j">Claude</text><text x="24.048" y="1.67" class="j">Code</text><text x="29.058" y="1.67" class="j">✓</text><text x="31.062" y="1.67" class="k">›</text><text x="33.066" y="1.67" class="g">Service</text><text x="2.004" y="6.012" class="h">Search:</text><path fill="#b9c0cb" d="M10.02 4.342h1v2.171h-1z"/><text x="10.02" y="6.012" style="white-space:pre" fill="#282d35">t</text><text x="11.022" y="6.012" class="u">ype</text><text x="15.03" y="6.012" class="u">to</text><text x="18.036" y="6.012" class="u">filter...</text><text x="2.004" y="8.183" class="k">1</text><text x="4.008" y="8.183" class="k">services</text><text x="2.004" y="12.525" class="g">❯</text><text x="4.008" y="12.525" class="g">playwright</text><text x="10.02" y="19.038" class="k">—</text><text x="12.024" y="19.038" class="k">end</text><text x="16.032" y="19.038" class="k">of</text><text x="19.038" y="19.038" class="k">results</text><text x="27.054" y="19.038" class="k">—</text><text y="51.603" class="i">↑↓</text><text x="3.006" y="51.603" class="h">move</text><text x="9.018" y="51.603" class="i">Enter</text><text x="15.03" y="51.603" class="h">select</text><text x="23.046" y="51.603" class="i">type</text><text x="28.056" y="51.603" class="h">to</text><text x="31.062" y="51.603" class="h">filter</text><text x="39.078" y="51.603" class="i">Esc</text><text x="43.086" y="51.603" class="h">back</text></svg><svg x="400"><use xlink:href="#a"/><use xlink:href="#b" x="-.004" y="49.908"/><text y="1.67" class="f">mcp-wire</text><text x="9.018" y="1.67" class="f">v0.2.2</text><text x="17.034" y="1.67" class="j">Claude</text><text x="24.048" y="1.67" class="j">Code</text><text x="29.058" y="1.67" class="j">✓</text><text x="31.062" y="1.67" class="k">›</text><text x="33.066" y="1.67" class="j">playwright</text><text x="44.088" y="1.67" class="j">✓</text><text x="46.092" y="1.67" class="k">›</text><text x="48.096" y="1.67" class="g">Scope</text><text x="2.004" y="8.183" class="h">Install</text><text x="10.02" y="8.183" class="h">scope</text><text x="16.032" y="8.183" class="h">for</text><text x="20.04" y="8.183" class="h">targets</text><text x="28.056" y="8.183" class="h">that</text><text x="33.066" y="8.183" class="h">support</text><text x="41.082" y="8.183" class="h">it</text><text x="44.088" y="8.183" class="h">(Claude</text><text x="52.104" y="8.183" class="h">Code):</text><text x="2.004" y="12.525" class="g">❯</text><text x="4.008" y="12.525" class="g">User</text><text x="12.024" y="12.525" class="k">available</text><text x="22.044" y="12.525" class="k">across</text><text x="29.058" y="12.525" class="k">all</text><text x="33.066" y="12.525" class="k">projects</text><text x="42.084" y="12.525" class="k">(default)</text><text x="4.008" y="14.696" class="h">Project</text><text x="15.03" y="14.696" class="k">only</text><text x="20.04" y="14.696" class="k">for</text><text x="24.048" y="14.696" class="k">the</text><text x="28.056" y="14.696" class="k">current</text><text x="36.072" y="14.696" class="k">directory</text><text x="2.004" y="21.209" class="k">Targets</text><text x="10.02" y="21.209" class="k">without</text><text x="18.036" y="21.209" class="k">scope</text><text x="24.048" y="21.209" class="k">support</text><text x="32.064" y="21.209" class="k">will</text><text x="37.074" y="21.209" class="k">use</text><text x="41.082" y="21.209" class="k">their</text><text x="47.094" y="21.209" class="k">default</text><text x="55.11" y="21.209" class="k">behavior.</text><text y="51.603" class="i">↑↓</text><text x="3.006" y="51.603" class="h">move</text><text x="9.018" y="51.603" class="i">Enter</text><text x="15.03" y="51.603" class="h">select</text><text x="23.046" y="51.603" class="i">Esc</text><text x="27.054" y="51.603" class="h">back</text></svg><svg x="480"><use xlink:href="#a"/><use xlink:href="#b" x="-.004" y="49.908"/><text y="1.67" class="f">mcp-wire</text><text x="9.018" y="1.67" class="f">v0.2.2</text><text x="17.034" y="1.67" class="j">Claude</text><text x="24.048" y="1.67" class="j">Code</text><text x="29.058" y="1.67" class="j">✓</text><text x="31.062" y="1.67" class="k">›</text><text x="33.066" y="1.67" class="j">playwright</text><text x="44.088" y="1.67" class="j">✓</text><text x="2.004" y="8.183" class="k">Action:</text><text x="11.022" y="8.183" class="h">Uninstall</text><text x="21.042" y="8.183" class="h">service</text><text x="2.004" y="10.354" class="k">Service:</text><text x="12.024" y="10.354" class="h">playwright</text><text x="2.004" y="12.525" class="k">Targets:</text><text x="12.024" y="12.525" class="h">Claude</text><text x="19.038" y="12.525" class="h">Code</text><text x="2.004" y="14.696" class="k">Scope:</text><text x="10.02" y="14.696" class="h">User</text><text x="15.03" y="14.696" class="h">(for</text><text x="20.04" y="14.696" class="h">targets</text><text x="28.056" y="14.696" class="h">that</text><text x="33.066" y="14.696" class="h">support</text><text x="41.082" y="14.696" class="h">it)</text><text x="2.004" y="19.038" class="k">Command:</text><text x="12.024" y="19.038" class="h">mcp-wire</text><text x="21.042" y="19.038" class="h">uninstall</text><text x="31.062" y="19.038" class="h">playwright</text><text x="42.084" y="19.038" class="h">--target</text><text x="51.102" y="19.038" class="h">claude</text><text x="2.004" y="23.38" class="g">[Uninstall]</text><text x="16.032" y="23.38" class="k">Cancel</text><text y="51.603" class="i">←→</text><text x="3.006" y="51.603" class="h">choose</text><text x="11.022" y="51.603" class="i">Enter</text><text x="17.034" y="51.603" class="h">confirm</text><text x="26.052" y="51.603" class="i">Esc</text><text x="30.06" y="51.603" class="h">back</text></svg><svg x="560"><use xlink:href="#a"/><use xlink:href="#b" x="-.004" y="49.908"/><use xlink:href="#6"/><use xlink:href="#7" y="6.513"/><use xlink:href="#8" y="10.855"/><use xlink:href="#9" y="15.197"/><use xlink:href="#10" y="17.368"/><text x="2.004" y="23.38" class="g">[Uninstall</text><text x="13.026" y="23.38" class="g">another]</text><text x="24.048" y="23.38" class="k">Back</text><text x="29.058" y="23.38" class="k">to</text><text x="32.064" y="23.38" class="k">menu</text><text x="40.08" y="23.38" class="k">Exit</text><use xlink:href="#11" y="49.933"/></svg><svg x="640"><use xlink:href="#a"/><use xlink:href="#b" x="-.004" y="49.908"/><use xlink:href="#6"/><use xlink:href="#7" y="6.513"/><use xlink:href="#8" y="10.855"/><use xlink:href="#9" y="15.197"/><use xlink:href="#10" y="17.368"/><use xlink:href="#12" y="21.71"/><use xlink:href="#11" y="49.933"/></svg><svg x="720"><use xlink:href="#a"/><use xlink:href="#b" x="-.004"/><use xlink:href="#6"/><use xlink:href="#7" y="6.513"/><use xlink:href="#8" y="10.855"/><use xlink:href="#9" y="15.197"/><use xlink:href="#10" y="17.368"/><use xlink:href="#12" y="21.71"/></svg></svg></g></g></svg></svg>